<svg width="174" height="48" viewBox="0 0 174 48" fill="none" xmlns="http://www.w3.org/2000/svg">
<path d="M68.6788 25.6053H0.102295V0.973694H68.6788V25.6053Z" fill="#680707"/>
<path d="M7.46761 15.1053H12.9653L10.2296 6.86846L7.46761 15.1053ZM6.91521 16.5264L5.96824 19.0527C5.86302 19.4211 5.81041 19.7369 5.81041 20.0264C5.81041 21.0264 6.41542 21.5264 7.65174 21.579V22.4737H2.15405V21.6053C2.70645 21.579 3.25885 20.8685 3.86386 19.4737L9.88765 3.57899H11.6238L17.6739 19.4737C18.2526 20.8685 18.8313 21.579 19.3837 21.6053V22.4737H12.5444V21.6053C13.8597 21.6053 14.5173 21.079 14.5173 20.0527C14.5173 19.7895 14.4647 19.4737 14.3595 19.079L13.5177 16.5264H6.91521ZM32.1941 3.55267V8.55267H30.984C30.984 6.18425 30.1949 4.97372 28.5903 4.97372H26.6175V20.0527C26.6175 21.0527 27.2751 21.5527 28.564 21.579V22.4737H21.9089V21.6053C23.1978 21.579 23.8555 21.079 23.8555 20.079V5.00004H21.8826C20.278 5.00004 19.4889 6.18425 19.4889 8.57899H18.2789V3.57899H32.1941V3.55267ZM51.2124 13.1316C51.2124 15.9737 50.5022 18.2895 49.0554 20.0264C47.6613 21.7895 45.5306 22.6579 42.6897 22.6579C39.7435 22.6579 37.5339 21.7895 36.0872 20.0264C34.6404 18.2895 33.9302 15.9737 33.9302 13.1316C33.9302 10.1579 34.6404 7.78951 36.0609 6.02635C37.5076 4.2632 39.612 3.39478 42.4266 3.39478C45.4254 3.39478 47.635 4.2632 49.0817 6.02635C50.5022 7.78951 51.2124 10.1579 51.2124 13.1316ZM42.6897 21.4737C44.3995 21.4737 45.7147 20.7369 46.6354 19.2895C47.5823 17.8158 48.0295 15.7632 48.0295 13.1053C47.9769 10.4737 47.4508 8.42109 46.4512 6.92109C45.4254 5.42109 44.0838 4.68425 42.4266 4.68425C40.7431 4.68425 39.4279 5.42109 38.5072 6.86846C37.5602 8.34214 37.0868 10.4211 37.0868 13.1053C37.1394 15.6843 37.6918 17.7369 38.7176 19.2106C39.7698 20.7369 41.0851 21.4737 42.6897 21.4737ZM56.1051 11.6053C54.8688 10.6842 54.1848 9.52636 54.0796 8.13162C54.0796 6.84214 54.6057 5.71056 55.6579 4.78951C56.6838 3.86846 58.1569 3.39478 60.1034 3.39478C62.0237 3.39478 63.5756 3.94741 64.7856 5.05267V8.57899H63.8913C63.523 7.13162 63.0495 6.13162 62.4445 5.57899C61.8132 5.02635 61.0767 4.7632 60.2349 4.7632C59.1301 4.7632 58.341 5.05267 57.8412 5.57899C57.3151 6.13162 57.0784 6.84214 57.0784 7.63162C57.131 8.52635 58.0779 9.44741 59.9193 10.4474C61.6817 11.3948 63.0232 12.2369 63.9965 12.9474C65.4433 14.079 66.2061 15.5527 66.3376 17.3685C66.3376 18.9211 65.7852 20.2106 64.6804 21.2106C63.5493 22.2106 61.8658 22.7106 59.6562 22.7106C57.0784 22.7106 55.1055 21.9737 53.7903 20.5V15.7632H55.1318C55.4738 18.1579 55.9999 19.6842 56.7627 20.3685C57.4992 21.0527 58.3936 21.3685 59.4984 21.3685C60.8136 21.3685 61.7869 21.079 62.3919 20.5527C62.9706 20.0264 63.2863 19.1579 63.3126 17.9474C63.2337 16.4474 62.2078 15.1842 60.2612 14.079C58.3147 13.0264 56.9468 12.2106 56.1051 11.6053Z" fill="white"/>
<path d="M73.8607 13.1316C73.8607 15.6053 74.3868 17.579 75.4389 19.079C76.4911 20.5527 77.8064 21.2895 79.411 21.2895C81.1208 21.2632 82.4623 20.7895 83.4619 19.7895C84.4615 18.7895 85.0402 17.8421 85.2243 16.9211H86.0398C85.7767 18.3158 85.0402 19.6316 83.8828 20.8421C82.7517 22 81.0419 22.6053 78.806 22.6579C76.3859 22.6579 74.3868 21.8421 72.8611 20.1842C71.2828 18.4474 70.4937 16.079 70.4937 13.1316C70.4937 10.1316 71.3091 7.7632 72.9663 6.05267C74.6235 4.28951 76.649 3.39478 79.069 3.39478C80.5421 3.39478 81.6732 3.65793 82.4623 4.18425C82.778 4.39478 83.041 4.50004 83.2251 4.50004C83.5671 4.50004 83.7249 4.21056 83.7249 3.63162H84.9086V9.84214H83.7775C83.5671 8.2632 83.1462 7.00004 82.5149 6.05267C81.8836 5.13162 80.8314 4.65793 79.3583 4.65793C77.9116 4.65793 76.6227 5.44741 75.5179 7.05267C74.4131 8.6053 73.8607 10.6316 73.8607 13.1316ZM91.7216 15.1053H97.2193L94.4836 6.84214L91.7216 15.1053ZM91.1692 16.5264L90.2485 19.0527C90.1433 19.4211 90.0907 19.7369 90.0907 20.0264C90.0907 21.0264 90.6957 21.5264 91.932 21.579V22.4737H86.4343V21.6053C86.9867 21.579 87.5391 20.8685 88.1441 19.4737L94.1679 3.57899H95.904L101.954 19.4737C102.533 20.8685 103.112 21.579 103.664 21.6053V22.4737H96.851V21.6053C98.1662 21.6053 98.8239 21.079 98.8239 20.0527C98.8239 19.7895 98.7713 19.4737 98.666 19.079L97.8506 16.5527H91.1692V16.5264ZM108.846 14.0527V18.7632C108.846 20.6053 109.53 21.5527 110.898 21.579V22.4737H104.137V21.6053C105.453 21.579 106.11 21.0527 106.11 20.079V5.94741C106.11 4.97372 105.453 4.47372 104.137 4.42109V3.55267H110.477C115.659 3.57899 118.237 5.31583 118.237 8.78951C118.21 12.2632 115.633 14 110.477 14.0264H108.846V14.0527ZM108.846 4.71056V11.7895C108.846 12.5527 109.267 12.9211 110.135 12.9211H110.661C113.607 12.8158 115.08 11.4474 115.08 8.78951C115.08 6.13162 113.607 4.7632 110.661 4.68425H108.846V4.71056ZM123.945 20.079C123.945 21.0527 124.629 21.5527 125.997 21.6053V22.4737H119.236V21.6053C120.552 21.579 121.209 21.0527 121.209 20.079V5.94741C121.209 4.97372 120.552 4.47372 119.236 4.42109V3.55267H125.997V4.42109C124.629 4.44741 123.945 4.97372 123.945 5.94741V20.079ZM141.069 3.55267V8.55267H139.859C139.859 6.18425 139.07 4.97372 137.466 4.97372H135.493V20.0527C135.493 21.0527 136.15 21.5527 137.439 21.579V22.4737H130.784V21.6053C132.073 21.579 132.731 21.079 132.731 20.079V5.00004H130.758C129.153 5.00004 128.364 6.18425 128.364 8.57899H127.154V3.57899H141.069V3.55267ZM146.672 15.1053H152.17L149.434 6.84214L146.672 15.1053ZM146.093 16.5264L145.173 19.0527C145.068 19.4211 145.015 19.7369 145.015 20.0264C145.015 21.0264 145.62 21.5264 146.856 21.579V22.4737H141.359V21.6053C141.911 21.579 142.463 20.8685 143.068 19.4737L149.092 3.57899H150.828L156.878 19.4737C157.457 20.8685 158.036 21.579 158.588 21.6053V22.4737H151.775V21.6053C153.091 21.6053 153.748 21.079 153.748 20.0527C153.748 19.7895 153.696 19.4737 153.59 19.079L152.775 16.5527H146.093V16.5264ZM167.321 21.0264C169.741 21.0264 170.925 19.8685 170.925 17.5527H172.161V22.4737H159.483V21.6053C160.772 21.579 161.429 21.079 161.429 20.079V5.94741C161.429 4.94741 160.772 4.44741 159.483 4.42109V3.55267H166.243V4.42109C164.849 4.44741 164.165 4.94741 164.165 5.94741V19.9737C164.165 20.6579 164.691 21 165.769 21H167.321V21.0264Z" fill="#680707"/>
<path d="M173.898 25.6052H69.7834V24.2105H173.898V25.6052Z" fill="black"/>
<path d="M37.5601 35.1053C37.5601 35.3421 37.5075 35.579 37.4023 35.7632C37.2971 35.9474 37.1655 36.1316 37.0077 36.2632C36.8236 36.3947 36.6395 36.5 36.4027 36.579C36.166 36.6579 35.9292 36.6842 35.6399 36.6842C35.4557 36.6842 35.2716 36.6579 35.1138 36.6316C34.9559 36.6053 34.7981 36.5526 34.6929 36.5263C34.5614 36.4737 34.4562 36.4474 34.3772 36.3947C34.2983 36.3421 34.2194 36.3158 34.1931 36.2632C34.1668 36.2368 34.1405 36.1842 34.1142 36.1316C34.0879 36.0789 34.0879 36.0263 34.0879 35.9211C34.0879 35.8684 34.0879 35.8158 34.0879 35.7632C34.0879 35.7368 34.1142 35.6842 34.1142 35.6579C34.1142 35.6316 34.1405 35.6053 34.1668 35.6053C34.1931 35.6053 34.1931 35.579 34.2194 35.579C34.272 35.579 34.3246 35.6053 34.4035 35.6579C34.4825 35.7105 34.5614 35.7632 34.6929 35.8158C34.7981 35.8684 34.9559 35.9211 35.1138 35.9737C35.2716 36.0263 35.4557 36.0526 35.6925 36.0526C35.8503 36.0526 36.0081 36.0263 36.1397 36C36.2712 35.9474 36.4027 35.8947 36.4816 35.8158C36.5868 35.7368 36.6658 35.6579 36.7184 35.5263C36.771 35.4211 36.7973 35.2895 36.7973 35.1579C36.7973 35 36.771 34.8684 36.6921 34.7632C36.6131 34.6579 36.5342 34.5526 36.4027 34.4737C36.2712 34.3947 36.1397 34.3158 36.0081 34.2632C35.8503 34.1842 35.6925 34.1316 35.5347 34.0526C35.3768 33.9737 35.219 33.8947 35.0612 33.8158C34.9033 33.7368 34.7718 33.6316 34.6666 33.5263C34.5351 33.4211 34.4562 33.2632 34.3772 33.1316C34.2983 32.9737 34.272 32.7895 34.272 32.5789C34.272 32.3421 34.3246 32.1579 34.4035 31.9737C34.4825 31.7895 34.614 31.6579 34.7718 31.5263C34.9296 31.4211 35.1138 31.3158 35.3242 31.2632C35.5347 31.2105 35.7714 31.1579 36.0081 31.1579C36.1397 31.1579 36.2449 31.1579 36.3764 31.1842C36.5079 31.2105 36.6131 31.2368 36.7447 31.2632C36.8499 31.2895 36.9551 31.3421 37.034 31.3684C37.1129 31.4211 37.1655 31.4474 37.1919 31.4737C37.2182 31.5 37.2445 31.5263 37.2445 31.5263C37.2445 31.5526 37.2708 31.5526 37.2708 31.579C37.2708 31.6053 37.2708 31.6316 37.2971 31.6579C37.2971 31.6842 37.2971 31.7368 37.2971 31.7895C37.2971 31.8421 37.2971 31.8947 37.2971 31.9211C37.2971 31.9474 37.2971 32 37.2708 32.0263C37.2708 32.0526 37.2445 32.079 37.2445 32.079C37.2182 32.079 37.2182 32.1053 37.1919 32.1053C37.1655 32.1053 37.1129 32.0789 37.034 32.0526C36.9551 32.0263 36.8762 31.9737 36.771 31.9211C36.6658 31.8684 36.5605 31.8421 36.429 31.7895C36.2975 31.7368 36.1397 31.7368 35.9818 31.7368C35.824 31.7368 35.6925 31.7632 35.561 31.7895C35.4557 31.8421 35.3505 31.8947 35.2716 31.9474C35.1927 32.0263 35.1401 32.0789 35.1138 32.1842C35.0875 32.2632 35.0612 32.3684 35.0612 32.4737C35.0612 32.6316 35.0875 32.7368 35.1664 32.8684C35.2453 32.9737 35.3242 33.079 35.4557 33.1579C35.5873 33.2368 35.7188 33.3158 35.8766 33.3947C36.0344 33.4737 36.1923 33.5263 36.3501 33.6053C36.5079 33.6842 36.6658 33.7632 36.8236 33.8421C36.9814 33.9211 37.1129 34.0263 37.2445 34.1316C37.376 34.2368 37.4549 34.3684 37.5338 34.5263C37.5075 34.7105 37.5601 34.8947 37.5601 35.1053ZM42.7685 36.3158C42.7685 36.3684 42.7685 36.4211 42.7685 36.4474C42.7685 36.4737 42.7422 36.5263 42.7422 36.5526C42.7158 36.5789 42.7158 36.6053 42.6895 36.6053C42.6632 36.6053 42.6369 36.6316 42.6369 36.6316H39.9275C39.8486 36.6316 39.796 36.6053 39.7434 36.579C39.6908 36.5263 39.6645 36.4737 39.6645 36.3421V31.579C39.6645 31.4737 39.6908 31.3947 39.7434 31.3421C39.796 31.2895 39.8749 31.2895 39.9275 31.2895H42.6106C42.6369 31.2895 42.6632 31.2895 42.6632 31.3158C42.6895 31.3158 42.6895 31.3421 42.7158 31.3684C42.7158 31.3947 42.7422 31.4211 42.7422 31.4737C42.7422 31.5 42.7422 31.5526 42.7422 31.6053C42.7422 31.6579 42.7422 31.7105 42.7422 31.7368C42.7422 31.7632 42.7158 31.8158 42.7158 31.8158C42.7158 31.8421 42.6895 31.8684 42.6632 31.8684C42.6369 31.8684 42.6106 31.8947 42.6106 31.8947H40.401V33.5789H42.295C42.3213 33.5789 42.3476 33.579 42.3476 33.6053C42.3739 33.6053 42.3739 33.6316 42.4002 33.6579C42.4265 33.6842 42.4265 33.7105 42.4265 33.7368C42.4265 33.7895 42.4265 33.8158 42.4265 33.8684C42.4265 33.9211 42.4265 33.9737 42.4265 34C42.4265 34.0263 42.4002 34.0526 42.4002 34.079C42.3739 34.1053 42.3739 34.1053 42.3476 34.1316C42.3213 34.1316 42.295 34.1579 42.295 34.1579H40.401V36.0789H42.6369C42.6632 36.0789 42.6895 36.079 42.6895 36.1053C42.7158 36.1053 42.7158 36.1316 42.7422 36.1579C42.7685 36.1842 42.7685 36.2105 42.7685 36.2368C42.7685 36.2105 42.7685 36.2632 42.7685 36.3158ZM48.7396 36.5C48.7396 36.5263 48.7396 36.5526 48.7133 36.5526C48.7133 36.5789 48.687 36.5789 48.6607 36.6053C48.6344 36.6053 48.5818 36.6316 48.5292 36.6316C48.4766 36.6316 48.3977 36.6316 48.3188 36.6316C48.2398 36.6316 48.1872 36.6316 48.1346 36.6316C48.082 36.6316 48.0557 36.6053 48.0294 36.6053C48.0031 36.6053 47.9768 36.5789 47.9505 36.5526C47.9242 36.5263 47.9242 36.5 47.8979 36.4737L47.3718 35.2105C47.3192 35.0789 47.2403 34.9474 47.1877 34.8158C47.135 34.6842 47.0561 34.6053 46.9509 34.5C46.872 34.4211 46.7668 34.3421 46.6353 34.2895C46.5037 34.2368 46.3722 34.2105 46.1881 34.2105H45.6883V36.5C45.6883 36.5263 45.6883 36.5526 45.662 36.5526C45.6357 36.5789 45.6357 36.579 45.6094 36.579C45.5831 36.579 45.5568 36.6053 45.5042 36.6053C45.4515 36.6053 45.3989 36.6053 45.32 36.6053C45.2411 36.6053 45.1885 36.6053 45.1359 36.6053C45.0833 36.6053 45.057 36.579 45.0307 36.579C45.0044 36.579 44.9781 36.5526 44.9781 36.5526C44.9781 36.5263 44.9518 36.5263 44.9518 36.5V31.5526C44.9518 31.4474 44.9781 31.3684 45.0307 31.3158C45.0833 31.2632 45.1622 31.2632 45.2148 31.2632H46.4248C46.5563 31.2632 46.6879 31.2632 46.7931 31.2632C46.8983 31.2632 46.9772 31.2895 47.0561 31.2895C47.2666 31.3158 47.477 31.3947 47.6348 31.4474C47.7927 31.5263 47.9505 31.6316 48.0557 31.7368C48.1609 31.8684 48.2662 32 48.3188 32.1316C48.3714 32.2895 48.3977 32.4474 48.3977 32.6316C48.3977 32.8158 48.3714 32.9737 48.3188 33.1053C48.2662 33.2368 48.1872 33.3684 48.1083 33.4737C48.0031 33.579 47.8979 33.6842 47.7664 33.7632C47.6348 33.8421 47.477 33.9211 47.3192 33.9737C47.4244 34.0263 47.5033 34.0526 47.5822 34.1316C47.6611 34.1842 47.7401 34.2632 47.7927 34.3421C47.8453 34.4211 47.9242 34.5263 47.9768 34.6316C48.0294 34.7368 48.082 34.8684 48.1609 35L48.6607 36.1842C48.7133 36.2895 48.7396 36.3421 48.7396 36.3947C48.7396 36.4474 48.7396 36.4737 48.7396 36.5ZM47.6085 32.7368C47.6085 32.5263 47.5559 32.3421 47.4507 32.2105C47.3455 32.079 47.1877 31.9737 46.9509 31.8947C46.872 31.8684 46.7931 31.8684 46.7142 31.8421C46.6353 31.8421 46.5037 31.8421 46.3459 31.8421H45.7146V33.6316H46.4511C46.6616 33.6316 46.8194 33.6053 46.9509 33.5526C47.0824 33.5 47.214 33.4474 47.3192 33.3684C47.4244 33.2895 47.477 33.1842 47.5296 33.079C47.6085 33 47.6085 32.8684 47.6085 32.7368ZM53.001 36.4737C53.001 36.5 52.9747 36.5263 52.9484 36.5526C52.9221 36.5789 52.8958 36.5789 52.8695 36.6053C52.8432 36.6053 52.7906 36.6316 52.738 36.6316C52.6853 36.6316 52.6064 36.6316 52.5275 36.6316C52.4749 36.6316 52.396 36.6316 52.3697 36.6316C52.3171 36.6316 52.2908 36.6316 52.2382 36.6316C52.2119 36.6316 52.1856 36.6316 52.1593 36.6053C52.1329 36.6053 52.1066 36.579 52.1066 36.579C52.0803 36.579 52.0803 36.5526 52.054 36.5526C52.054 36.5263 52.0277 36.5263 52.0277 36.5L50.1864 31.5263C50.1601 31.4737 50.1601 31.4211 50.1601 31.3684C50.1601 31.3421 50.1601 31.3158 50.1864 31.2895C50.2127 31.2632 50.2653 31.2632 50.3179 31.2632C50.3705 31.2632 50.4494 31.2632 50.5547 31.2632C50.6336 31.2632 50.7125 31.2632 50.7388 31.2632C50.7914 31.2632 50.8177 31.2632 50.844 31.2895C50.8703 31.2895 50.8966 31.3158 50.8966 31.3421C50.9229 31.3684 50.9229 31.3947 50.9229 31.4211L52.5275 35.9211L54.1058 31.4211C54.1058 31.3947 54.1321 31.3684 54.1321 31.3421C54.1321 31.3158 54.1584 31.3158 54.1847 31.2895C54.211 31.2895 54.2636 31.2632 54.3162 31.2632C54.3689 31.2632 54.4478 31.2632 54.5267 31.2632C54.6056 31.2632 54.6845 31.2632 54.7371 31.2632C54.7897 31.2632 54.816 31.2895 54.8423 31.3158C54.8686 31.3421 54.8686 31.3684 54.8686 31.3947C54.8686 31.4211 54.8423 31.4737 54.816 31.5526L53.001 36.4737ZM57.5254 36.5C57.5254 36.5263 57.5254 36.5526 57.4991 36.5526C57.4991 36.5789 57.4728 36.579 57.4465 36.579C57.4202 36.579 57.3676 36.6053 57.3413 36.6053C57.2887 36.6053 57.2361 36.6053 57.1572 36.6053C57.0782 36.6053 57.0256 36.6053 56.973 36.6053C56.9204 36.6053 56.8941 36.579 56.8678 36.579C56.8415 36.579 56.8152 36.5526 56.8152 36.5526C56.8152 36.5263 56.7889 36.5263 56.7889 36.5V31.3684C56.7889 31.3421 56.7889 31.3158 56.8152 31.3158C56.8415 31.2895 56.8415 31.2895 56.8678 31.2632C56.8941 31.2632 56.9467 31.2368 56.973 31.2368C57.0256 31.2368 57.0782 31.2368 57.1572 31.2368C57.2361 31.2368 57.2887 31.2368 57.3413 31.2368C57.3939 31.2368 57.4202 31.2632 57.4465 31.2632C57.4728 31.2632 57.4991 31.2895 57.4991 31.3158C57.4991 31.3421 57.5254 31.3421 57.5254 31.3684V36.5ZM62.497 36.9211C62.5496 37.0526 62.6022 37.1579 62.6285 37.2368C62.6548 37.3158 62.6811 37.3947 62.6811 37.4737C62.6811 37.5789 62.6548 37.6842 62.6285 37.7632C62.5759 37.8421 62.5233 37.9211 62.4444 37.9737C62.3655 38.0263 62.2866 38.0789 62.1814 38.1053C62.0761 38.1316 61.9709 38.1579 61.8394 38.1579C61.7342 38.1579 61.629 38.1579 61.55 38.1316C61.4711 38.1316 61.3922 38.1053 61.3133 38.079C61.2344 38.0526 61.2081 38.0526 61.1818 38.0526C61.1555 38.0526 61.1292 38.0263 61.1292 38C61.1292 37.9737 61.1029 37.9737 61.1029 37.9474C61.1029 37.9211 61.1029 37.8947 61.1029 37.8421C61.1029 37.7632 61.1029 37.7105 61.1292 37.6579C61.1555 37.6316 61.1818 37.6053 61.2344 37.6053H61.7605C61.8657 37.6053 61.9183 37.579 61.9709 37.5526C62.0235 37.5263 62.0498 37.4474 62.0498 37.3947C62.0498 37.3684 62.0498 37.3158 62.0235 37.2632C61.9972 37.2105 61.9709 37.1579 61.9446 37.1053L61.7342 36.6842C61.4711 36.6579 61.2081 36.5789 60.9713 36.4737C60.7346 36.3684 60.5242 36.2105 60.3137 36C60.1296 35.7895 59.9718 35.5263 59.8402 35.1842C59.735 34.8421 59.6824 34.4737 59.6824 34.0263C59.6824 33.5789 59.735 33.1842 59.8665 32.8421C59.9981 32.5 60.1559 32.2105 60.3663 31.9737C60.5768 31.7368 60.8398 31.5526 61.1555 31.4211C61.4711 31.2895 61.7868 31.2368 62.1551 31.2368C62.3129 31.2368 62.4707 31.2632 62.6285 31.2895C62.7864 31.3158 62.9179 31.3421 63.0494 31.3947C63.1809 31.4474 63.2862 31.5 63.3914 31.5526C63.4966 31.6053 63.5755 31.6579 63.6018 31.6842C63.6544 31.7105 63.6544 31.7368 63.6807 31.7632C63.6807 31.7895 63.707 31.8158 63.707 31.8421C63.707 31.8684 63.7333 31.8947 63.7333 31.9474C63.7333 31.9737 63.7333 32.0263 63.7333 32.079C63.7333 32.1316 63.7333 32.1842 63.7333 32.2105C63.7333 32.2368 63.707 32.2895 63.707 32.3158C63.707 32.3421 63.6807 32.3684 63.6544 32.3684C63.6281 32.3684 63.6281 32.3947 63.6018 32.3947C63.5492 32.3947 63.4966 32.3684 63.444 32.3158C63.3651 32.2632 63.2862 32.2105 63.1546 32.1316C63.0494 32.0789 62.8916 32 62.7338 31.9474C62.5759 31.8947 62.3655 31.8684 62.1551 31.8684C61.892 31.8684 61.6816 31.9211 61.4711 32C61.2607 32.1053 61.1029 32.2368 60.945 32.4211C60.7872 32.6053 60.682 32.8421 60.6031 33.1053C60.5242 33.3684 60.4716 33.6842 60.4716 34.0263C60.4716 34.3684 60.4979 34.6579 60.5768 34.9211C60.6557 35.1842 60.7609 35.3947 60.9187 35.579C61.0503 35.7632 61.2344 35.8947 61.4448 35.9737C61.6553 36.0526 61.892 36.1053 62.1551 36.1053C62.3655 36.1053 62.5496 36.079 62.7338 36.0263C62.8916 35.9737 63.0494 35.9211 63.1809 35.8421C63.3125 35.7895 63.3914 35.7105 63.4703 35.6579C63.5492 35.6053 63.6018 35.579 63.6544 35.579C63.6807 35.579 63.6807 35.579 63.707 35.579C63.7333 35.579 63.7333 35.6053 63.7333 35.6316C63.7333 35.6579 63.7596 35.6842 63.7596 35.7368C63.7596 35.7895 63.7596 35.8421 63.7596 35.8947C63.7596 35.9474 63.7596 35.9737 63.7596 36C63.7596 36.0263 63.7596 36.0526 63.7333 36.0789C63.7333 36.1053 63.707 36.1316 63.707 36.1579C63.707 36.1842 63.6807 36.2105 63.6544 36.2368C63.6281 36.2632 63.5755 36.3158 63.4703 36.3684C63.3651 36.4211 63.2599 36.4737 63.1283 36.5263C62.9968 36.5789 62.8653 36.6316 62.7338 36.6579C62.6022 36.6842 62.4707 36.7105 62.3392 36.7105L62.497 36.9211ZM70.441 33.8684C70.441 34.2895 70.3884 34.6842 70.2832 35.0263C70.178 35.3684 70.0202 35.6579 69.8097 35.9211C69.5993 36.1579 69.3363 36.3421 68.9943 36.4737C68.6786 36.6053 68.2841 36.6579 67.8632 36.6579C67.4423 36.6579 67.074 36.6053 66.7584 36.4737C66.4427 36.3421 66.206 36.1842 65.9955 35.9474C65.7851 35.7105 65.6536 35.4474 65.5484 35.1053C65.4431 34.7632 65.3905 34.3684 65.3905 33.9474C65.3905 33.5263 65.4431 33.1316 65.5484 32.7895C65.6536 32.4474 65.8114 32.1579 66.0219 31.9211C66.2323 31.6842 66.4953 31.5 66.8373 31.3684C67.153 31.2368 67.5212 31.1842 67.9684 31.1842C68.3893 31.1842 68.7312 31.2368 69.0469 31.3684C69.3626 31.4737 69.5993 31.6579 69.8097 31.8947C70.0202 32.1316 70.178 32.3947 70.2569 32.7368C70.3884 33.0526 70.441 33.4474 70.441 33.8684ZM69.6519 33.9211C69.6519 33.6316 69.6256 33.3421 69.573 33.079C69.5204 32.8158 69.4152 32.6053 69.2836 32.3947C69.1521 32.2105 68.968 32.0526 68.7575 31.9474C68.5471 31.8421 68.2578 31.7895 67.9421 31.7895C67.6264 31.7895 67.3371 31.8421 67.1266 31.9737C66.9162 32.079 66.7321 32.2368 66.6006 32.4474C66.469 32.6316 66.3638 32.8684 66.3112 33.1316C66.2586 33.3947 66.2323 33.6579 66.2323 33.9474C66.2323 34.2632 66.2586 34.5526 66.3112 34.8158C66.3638 35.0789 66.469 35.3158 66.6006 35.5C66.7321 35.6842 66.9162 35.8421 67.1266 35.9474C67.3371 36.0526 67.6264 36.1053 67.9421 36.1053C68.2578 36.1053 68.5471 36.0526 68.7575 35.9211C68.968 35.8158 69.1521 35.6579 69.3099 35.4474C69.4415 35.2632 69.5467 35.0263 69.5993 34.7632C69.6256 34.4737 69.6519 34.2105 69.6519 33.9211ZM75.6757 35.1053C75.6757 35.3421 75.6231 35.579 75.5179 35.7632C75.4127 35.9474 75.2811 36.1316 75.1233 36.2632C74.9392 36.3947 74.755 36.5 74.5183 36.579C74.2815 36.6579 74.0448 36.6842 73.7554 36.6842C73.5713 36.6842 73.3872 36.6579 73.2294 36.6316C73.0715 36.6053 72.9137 36.5526 72.8085 36.5263C72.677 36.4737 72.5717 36.4474 72.4928 36.3947C72.4139 36.3421 72.335 36.3158 72.3087 36.2632C72.2824 36.2368 72.2561 36.1842 72.2298 36.1316C72.2035 36.0789 72.2035 36.0263 72.2035 35.9211C72.2035 35.8684 72.2035 35.8158 72.2035 35.7632C72.2035 35.7368 72.2298 35.6842 72.2298 35.6579C72.2298 35.6316 72.2561 35.6053 72.2824 35.6053C72.3087 35.6053 72.3087 35.579 72.335 35.579C72.3876 35.579 72.4402 35.6053 72.5191 35.6579C72.598 35.7105 72.677 35.7632 72.8085 35.8158C72.9137 35.8684 73.0715 35.9211 73.2294 35.9737C73.3872 36.0263 73.5713 36.0526 73.8081 36.0526C73.9659 36.0526 74.1237 36.0263 74.2552 36C74.3868 35.9474 74.5183 35.8947 74.5972 35.8158C74.7024 35.7368 74.7813 35.6579 74.8339 35.5263C74.8866 35.4211 74.9129 35.2895 74.9129 35.1579C74.9129 35 74.8866 34.8684 74.8076 34.7632C74.7287 34.6579 74.6498 34.5526 74.5183 34.4737C74.3868 34.3947 74.2552 34.3158 74.1237 34.2632C73.9659 34.1842 73.8081 34.1316 73.6502 34.0526C73.4924 33.9737 73.3346 33.8947 73.1767 33.8158C73.0189 33.7368 72.8874 33.6316 72.7822 33.5263C72.6506 33.4211 72.5717 33.2632 72.4928 33.1316C72.4139 32.9737 72.3876 32.7895 72.3876 32.5789C72.3876 32.3421 72.4402 32.1579 72.5191 31.9737C72.598 31.7895 72.7296 31.6579 72.8874 31.5263C73.0452 31.4211 73.2294 31.3158 73.4398 31.2632C73.6502 31.2105 73.887 31.1579 74.1237 31.1579C74.2552 31.1579 74.3605 31.1579 74.492 31.1842C74.6235 31.2105 74.7287 31.2368 74.8602 31.2632C74.9655 31.2895 75.0707 31.3421 75.1496 31.3684C75.2285 31.4211 75.2811 31.4474 75.3337 31.4737C75.36 31.5 75.3863 31.5263 75.3863 31.5263C75.3863 31.5526 75.4126 31.5526 75.4126 31.579C75.4126 31.6053 75.4126 31.6316 75.4389 31.6579C75.4389 31.6842 75.4389 31.7368 75.4389 31.7895C75.4389 31.8421 75.4389 31.8947 75.4389 31.9211C75.4389 31.9474 75.4389 32 75.4126 32.0263C75.4126 32.0526 75.3863 32.079 75.3863 32.079C75.36 32.079 75.36 32.1053 75.3337 32.1053C75.3074 32.1053 75.2548 32.0789 75.1759 32.0526C75.097 32.0263 75.0181 31.9737 74.9129 31.9211C74.8076 31.8684 74.7024 31.8421 74.5709 31.7895C74.4394 31.7368 74.2815 31.7368 74.1237 31.7368C73.9659 31.7368 73.8344 31.7632 73.7028 31.7895C73.5976 31.8421 73.4924 31.8947 73.4135 31.9474C73.3346 32.0263 73.282 32.0789 73.2557 32.1842C73.2294 32.2632 73.203 32.3684 73.203 32.4737C73.203 32.6316 73.2294 32.7368 73.3083 32.8684C73.3872 32.9737 73.4661 33.079 73.5976 33.1579C73.7291 33.2368 73.8607 33.3158 74.0185 33.3947C74.1763 33.4737 74.3341 33.5263 74.492 33.6053C74.6498 33.6842 74.8076 33.7632 74.9655 33.8421C75.1233 33.9211 75.2548 34.0263 75.3863 34.1316C75.5179 34.2368 75.5968 34.3684 75.6757 34.5263C75.6231 34.7105 75.6757 34.8947 75.6757 35.1053ZM84.7245 31.579C84.7245 31.6316 84.7245 31.6842 84.7245 31.7105C84.7245 31.7368 84.6982 31.7895 84.6982 31.8158C84.6719 31.8421 84.6719 31.8684 84.6456 31.8684C84.6193 31.8684 84.6193 31.8947 84.593 31.8947H82.5412V33.7105H84.4878C84.5141 33.7105 84.5404 33.7105 84.5404 33.7368C84.5667 33.7368 84.5667 33.7632 84.593 33.7895C84.6193 33.8158 84.6193 33.8421 84.6193 33.8684C84.6193 33.8947 84.6193 33.9474 84.6193 34C84.6193 34.0526 84.6193 34.1053 84.6193 34.1316C84.6193 34.1579 84.593 34.2105 84.593 34.2105C84.5667 34.2368 84.5667 34.2632 84.5404 34.2632C84.5141 34.2632 84.5141 34.2895 84.4878 34.2895H82.5412V36.5263C82.5412 36.5526 82.5412 36.5526 82.5149 36.579C82.5149 36.6053 82.4886 36.6053 82.4623 36.6316C82.436 36.6316 82.3834 36.6579 82.3571 36.6579C82.3045 36.6579 82.2519 36.6579 82.173 36.6579C82.0941 36.6579 82.0414 36.6579 81.9888 36.6579C81.9362 36.6579 81.9099 36.6316 81.8836 36.6316C81.8573 36.6316 81.831 36.6053 81.831 36.579C81.831 36.5526 81.8047 36.5526 81.8047 36.5263V31.579C81.8047 31.4737 81.831 31.3947 81.8836 31.3421C81.9362 31.2895 82.0151 31.2895 82.0677 31.2895H84.593C84.6193 31.2895 84.6456 31.2895 84.6456 31.3158C84.6719 31.3158 84.6719 31.3421 84.6982 31.3684C84.7245 31.3947 84.7245 31.4211 84.7245 31.4737C84.7245 31.4737 84.7245 31.5263 84.7245 31.579ZM87.6181 36.5C87.6181 36.5263 87.618 36.5526 87.5917 36.5526C87.5917 36.5789 87.5654 36.579 87.5391 36.579C87.5128 36.579 87.4602 36.6053 87.4339 36.6053C87.3813 36.6053 87.3287 36.6053 87.2498 36.6053C87.1709 36.6053 87.1183 36.6053 87.0657 36.6053C87.013 36.6053 86.9867 36.579 86.9604 36.579C86.9341 36.579 86.9078 36.5526 86.9078 36.5526C86.9078 36.5263 86.8815 36.5263 86.8815 36.5V31.3684C86.8815 31.3421 86.8815 31.3158 86.9078 31.3158C86.9341 31.2895 86.9341 31.2895 86.9604 31.2632C86.9867 31.2632 87.0393 31.2368 87.0657 31.2368C87.1183 31.2368 87.1709 31.2368 87.2498 31.2368C87.3287 31.2368 87.3813 31.2368 87.4339 31.2368C87.4865 31.2368 87.5128 31.2632 87.5391 31.2632C87.5654 31.2632 87.5917 31.2895 87.5917 31.3158C87.5917 31.3421 87.6181 31.3421 87.6181 31.3684V36.5ZM94.4047 36.3158C94.4047 36.3684 94.4047 36.4211 94.3784 36.4474C94.3521 36.4737 94.3258 36.5263 94.2995 36.5526C94.2732 36.5789 94.2205 36.6053 94.1942 36.6053C94.1416 36.6053 94.1153 36.6316 94.089 36.6316H93.8523C93.7734 36.6316 93.6944 36.6316 93.6418 36.6053C93.5892 36.5789 93.5366 36.5526 93.484 36.5263C93.4314 36.5 93.3788 36.4211 93.3262 36.3684C93.2736 36.2895 93.221 36.2105 93.1683 36.1053L91.4585 33.079C91.3796 32.9211 91.2744 32.7632 91.1955 32.5789C91.0903 32.3947 91.0114 32.2368 90.9324 32.079C90.9324 32.2632 90.9324 32.4737 90.9588 32.6842C90.9588 32.8947 90.9588 33.1053 90.9588 33.2895V36.5263C90.9588 36.5526 90.9587 36.5526 90.9324 36.579C90.9061 36.6053 90.9061 36.6053 90.8798 36.6316C90.8535 36.6316 90.8009 36.6579 90.7746 36.6579C90.722 36.6579 90.6694 36.6579 90.5905 36.6579C90.5116 36.6579 90.459 36.6579 90.4063 36.6579C90.3537 36.6579 90.3274 36.6316 90.3011 36.6316C90.2748 36.6316 90.2485 36.6053 90.2485 36.579C90.2485 36.5526 90.2222 36.5526 90.2222 36.5263V31.6053C90.2222 31.5 90.2485 31.4211 90.3274 31.3684C90.38 31.3158 90.459 31.2895 90.5379 31.2895H90.9061C90.9851 31.2895 91.064 31.2895 91.1166 31.3158C91.1692 31.3158 91.2218 31.3421 91.2744 31.3947C91.327 31.4211 91.3533 31.4737 91.4059 31.5263C91.4585 31.579 91.4848 31.6579 91.5375 31.7368L92.8527 34.079C92.9316 34.2105 93.0105 34.3684 93.0894 34.5C93.1684 34.6316 93.2473 34.7632 93.2999 34.8947C93.3788 35.0263 93.4314 35.1579 93.5103 35.2895C93.5892 35.4211 93.6418 35.5526 93.7207 35.6842C93.7207 35.4737 93.7207 35.2368 93.7207 35C93.7207 34.7632 93.7207 34.5263 93.7207 34.3158V31.4211C93.7207 31.3947 93.7207 31.3947 93.7471 31.3684C93.7734 31.3421 93.7734 31.3421 93.7997 31.3158C93.826 31.3158 93.8786 31.2895 93.9049 31.2895C93.9575 31.2895 94.0101 31.2895 94.089 31.2895C94.1679 31.2895 94.2205 31.2895 94.2732 31.2895C94.3258 31.2895 94.3521 31.3158 94.3784 31.3158C94.4047 31.3158 94.431 31.3421 94.431 31.3684C94.431 31.3947 94.4573 31.3947 94.4573 31.4211V36.3158H94.4047ZM101.112 36.3684C101.139 36.4211 101.139 36.4737 101.139 36.5263C101.139 36.5526 101.139 36.5789 101.112 36.6053C101.086 36.6316 101.06 36.6316 101.007 36.6316C100.955 36.6316 100.876 36.6316 100.797 36.6316C100.718 36.6316 100.639 36.6316 100.586 36.6316C100.534 36.6316 100.481 36.6316 100.455 36.6053C100.428 36.6053 100.402 36.579 100.402 36.579C100.376 36.5526 100.376 36.5526 100.376 36.5263L99.9024 35.2368H97.5612L97.0878 36.5263C97.0878 36.5526 97.0615 36.579 97.0615 36.579C97.0351 36.6053 97.0351 36.6053 97.0088 36.6316C96.9825 36.6316 96.9299 36.6579 96.9036 36.6579C96.851 36.6579 96.7984 36.6579 96.6932 36.6579C96.6143 36.6579 96.5354 36.6579 96.4827 36.6579C96.4301 36.6579 96.4038 36.6316 96.3775 36.6316C96.3512 36.6053 96.3512 36.5789 96.3512 36.5526C96.3512 36.5263 96.3775 36.4737 96.3775 36.3947L98.2715 31.4211C98.2715 31.3947 98.2978 31.3684 98.3241 31.3421C98.3504 31.3158 98.3767 31.3158 98.403 31.2895C98.4293 31.2895 98.4819 31.2632 98.5345 31.2632C98.5871 31.2632 98.666 31.2632 98.745 31.2632C98.8502 31.2632 98.9028 31.2632 98.9817 31.2632C99.0343 31.2632 99.0869 31.2632 99.1395 31.2895C99.1658 31.2895 99.2184 31.3158 99.2184 31.3421C99.2447 31.3684 99.2447 31.3947 99.271 31.4211L101.112 36.3684ZM98.6923 31.9737L97.7191 34.6316H99.6656L98.6923 31.9737ZM107.32 36.3158C107.32 36.3684 107.32 36.4211 107.294 36.4474C107.268 36.4737 107.241 36.5263 107.215 36.5526C107.189 36.5789 107.136 36.6053 107.11 36.6053C107.057 36.6053 107.031 36.6316 107.005 36.6316H106.768C106.689 36.6316 106.61 36.6316 106.557 36.6053C106.505 36.5789 106.452 36.5526 106.4 36.5263C106.347 36.5 106.294 36.4211 106.242 36.3684C106.189 36.2895 106.137 36.2105 106.084 36.1053L104.374 33.079C104.295 32.9211 104.19 32.7632 104.111 32.5789C104.006 32.3947 103.927 32.2368 103.848 32.079C103.848 32.2632 103.848 32.4737 103.874 32.6842C103.874 32.8947 103.874 33.1053 103.874 33.2895V36.5263C103.874 36.5526 103.874 36.5526 103.848 36.579C103.822 36.6053 103.822 36.6053 103.795 36.6316C103.769 36.6316 103.717 36.6579 103.69 36.6579C103.638 36.6579 103.585 36.6579 103.506 36.6579C103.427 36.6579 103.375 36.6579 103.322 36.6579C103.269 36.6579 103.243 36.6316 103.217 36.6316C103.19 36.6316 103.164 36.6053 103.164 36.579C103.164 36.5526 103.138 36.5526 103.138 36.5263V31.6053C103.138 31.5 103.164 31.4211 103.243 31.3684C103.296 31.3158 103.375 31.2895 103.454 31.2895H103.822C103.901 31.2895 103.98 31.2895 104.032 31.3158C104.085 31.3158 104.137 31.3421 104.19 31.3947C104.243 31.4211 104.269 31.4737 104.322 31.5263C104.374 31.579 104.4 31.6579 104.453 31.7368L105.768 34.079C105.847 34.2105 105.926 34.3684 106.005 34.5C106.084 34.6316 106.163 34.7632 106.216 34.8947C106.294 35.0263 106.347 35.1579 106.426 35.2895C106.505 35.4211 106.557 35.5526 106.636 35.6842C106.636 35.4737 106.636 35.2368 106.636 35C106.636 34.7632 106.636 34.5263 106.636 34.3158V31.4211C106.636 31.3947 106.636 31.3947 106.663 31.3684C106.663 31.3421 106.689 31.3421 106.715 31.3158C106.742 31.3158 106.794 31.2895 106.821 31.2895C106.873 31.2895 106.926 31.2895 107.005 31.2895C107.084 31.2895 107.136 31.2895 107.189 31.2895C107.241 31.2895 107.268 31.3158 107.294 31.3158C107.32 31.3158 107.347 31.3421 107.347 31.3684C107.347 31.3947 107.373 31.3947 107.373 31.4211V36.3158H107.32Z" fill="black"/>
<path d="M113.607 35.8421C113.607 35.8947 113.607 35.9211 113.607 35.9474C113.607 35.9737 113.607 36 113.581 36.0263C113.581 36.0526 113.555 36.079 113.555 36.1053C113.555 36.1316 113.528 36.1579 113.502 36.1842C113.476 36.2105 113.423 36.2632 113.318 36.3158C113.213 36.3684 113.107 36.4211 112.976 36.4737C112.844 36.5263 112.687 36.5789 112.502 36.6053C112.318 36.6316 112.134 36.6579 111.924 36.6579C111.555 36.6579 111.24 36.6053 110.924 36.4737C110.635 36.3684 110.372 36.1842 110.161 35.9737C109.951 35.7368 109.793 35.4737 109.688 35.1316C109.583 34.7895 109.53 34.4211 109.53 33.9737C109.53 33.5263 109.583 33.1316 109.714 32.7895C109.846 32.4474 110.004 32.1579 110.214 31.8947C110.424 31.6579 110.687 31.4737 111.003 31.3421C111.319 31.2105 111.634 31.1579 112.003 31.1579C112.161 31.1579 112.318 31.1842 112.476 31.2105C112.634 31.2368 112.766 31.2632 112.897 31.3158C113.029 31.3684 113.134 31.4211 113.239 31.4737C113.344 31.5263 113.423 31.5789 113.449 31.6053C113.502 31.6316 113.502 31.6579 113.528 31.6842C113.528 31.7105 113.555 31.7368 113.555 31.7632C113.555 31.7895 113.581 31.8158 113.581 31.8684C113.581 31.8947 113.581 31.9474 113.581 32C113.581 32.0526 113.581 32.1053 113.581 32.1316C113.581 32.1579 113.555 32.2105 113.555 32.2368C113.555 32.2632 113.528 32.2895 113.502 32.2895C113.476 32.2895 113.476 32.3158 113.449 32.3158C113.397 32.3158 113.344 32.2895 113.265 32.2368C113.186 32.1842 113.107 32.1316 112.976 32.0526C112.871 32 112.713 31.9211 112.555 31.8684C112.397 31.8158 112.187 31.7895 111.95 31.7895C111.687 31.7895 111.477 31.8421 111.266 31.9211C111.056 32.0263 110.872 32.1579 110.74 32.3421C110.582 32.5263 110.477 32.7632 110.398 33.0263C110.319 33.2895 110.267 33.6053 110.267 33.9474C110.267 34.2895 110.293 34.579 110.372 34.8421C110.451 35.1053 110.556 35.3158 110.714 35.5C110.845 35.6842 111.029 35.8158 111.24 35.8947C111.45 35.9737 111.687 36.0263 111.95 36.0263C112.187 36.0263 112.371 36 112.529 35.9474C112.687 35.8947 112.844 35.8421 112.95 35.7632C113.081 35.7105 113.16 35.6316 113.239 35.579C113.318 35.5263 113.371 35.5 113.423 35.5C113.449 35.5 113.449 35.5 113.476 35.5C113.502 35.5 113.502 35.5263 113.502 35.5526C113.502 35.5789 113.528 35.6053 113.528 35.6579C113.581 35.7368 113.607 35.7895 113.607 35.8421ZM118.737 36.3158C118.737 36.3684 118.737 36.4211 118.737 36.4474C118.737 36.4737 118.71 36.5263 118.71 36.5526C118.684 36.579 118.684 36.6053 118.658 36.6053C118.631 36.6053 118.605 36.6316 118.605 36.6316H115.896C115.817 36.6316 115.764 36.6053 115.712 36.579C115.659 36.5263 115.633 36.4737 115.633 36.3421V31.579C115.633 31.4737 115.659 31.3947 115.712 31.3421C115.764 31.2895 115.843 31.2895 115.896 31.2895H118.579C118.605 31.2895 118.631 31.2895 118.631 31.3158C118.658 31.3158 118.658 31.3421 118.684 31.3684C118.684 31.3947 118.71 31.4211 118.71 31.4737C118.71 31.5 118.71 31.5526 118.71 31.6053C118.71 31.6579 118.71 31.7105 118.71 31.7368C118.71 31.7632 118.684 31.8158 118.684 31.8158C118.684 31.8421 118.658 31.8684 118.631 31.8684C118.605 31.8684 118.579 31.8947 118.579 31.8947H116.369V33.5789H118.263C118.29 33.5789 118.316 33.579 118.316 33.6053C118.342 33.6053 118.342 33.6316 118.368 33.6579C118.395 33.6842 118.395 33.7105 118.395 33.7368C118.395 33.7895 118.395 33.8158 118.395 33.8684C118.395 33.9211 118.395 33.9737 118.395 34C118.395 34.0263 118.368 34.0526 118.368 34.079C118.342 34.1053 118.342 34.1053 118.316 34.1316C118.29 34.1316 118.263 34.1579 118.263 34.1579H116.369V36.0789H118.605C118.631 36.0789 118.658 36.079 118.658 36.1053C118.684 36.1053 118.684 36.1316 118.71 36.1579C118.737 36.1842 118.737 36.2105 118.737 36.2368C118.737 36.2105 118.737 36.2632 118.737 36.3158ZM121.709 36.5C121.709 36.5263 121.709 36.5526 121.683 36.5526C121.683 36.579 121.657 36.579 121.63 36.579C121.604 36.579 121.551 36.6053 121.525 36.6053C121.472 36.6053 121.42 36.6053 121.341 36.6053C121.262 36.6053 121.209 36.6053 121.157 36.6053C121.104 36.6053 121.078 36.579 121.052 36.579C121.025 36.579 120.999 36.5526 120.999 36.5526C120.999 36.5263 120.973 36.5263 120.973 36.5V31.3684C120.973 31.3421 120.973 31.3158 120.999 31.3158C121.025 31.2895 121.025 31.2895 121.052 31.2632C121.078 31.2632 121.13 31.2368 121.157 31.2368C121.209 31.2368 121.262 31.2368 121.341 31.2368C121.42 31.2368 121.472 31.2368 121.525 31.2368C121.578 31.2368 121.604 31.2632 121.63 31.2632C121.657 31.2632 121.683 31.2895 121.683 31.3158C121.683 31.3421 121.709 31.3421 121.709 31.3684V36.5ZM127.97 36.5C127.97 36.5263 127.97 36.5526 127.943 36.5526C127.943 36.579 127.917 36.5789 127.891 36.6053C127.864 36.6053 127.812 36.6316 127.759 36.6316C127.707 36.6316 127.628 36.6316 127.549 36.6316C127.47 36.6316 127.417 36.6316 127.365 36.6316C127.312 36.6316 127.286 36.6053 127.259 36.6053C127.233 36.6053 127.207 36.579 127.181 36.5526C127.154 36.5263 127.154 36.5 127.128 36.4737L126.602 35.2105C126.549 35.0789 126.47 34.9474 126.418 34.8158C126.365 34.6842 126.286 34.6053 126.181 34.5C126.102 34.4211 125.997 34.3421 125.865 34.2895C125.734 34.2368 125.602 34.2105 125.418 34.2105H124.918V36.5C124.918 36.5263 124.918 36.5526 124.892 36.5526C124.866 36.579 124.866 36.579 124.839 36.579C124.813 36.579 124.787 36.6053 124.734 36.6053C124.682 36.6053 124.629 36.6053 124.55 36.6053C124.471 36.6053 124.419 36.6053 124.366 36.6053C124.313 36.6053 124.287 36.579 124.261 36.579C124.234 36.579 124.208 36.5526 124.208 36.5526C124.208 36.5263 124.182 36.5263 124.182 36.5V31.5526C124.182 31.4474 124.208 31.3684 124.261 31.3158C124.313 31.2632 124.392 31.2632 124.445 31.2632H125.655C125.786 31.2632 125.918 31.2632 126.023 31.2632C126.128 31.2632 126.207 31.2895 126.286 31.2895C126.497 31.3158 126.707 31.3947 126.865 31.4474C127.023 31.5263 127.181 31.6316 127.286 31.7368C127.391 31.8684 127.496 32 127.549 32.1316C127.601 32.2895 127.628 32.4474 127.628 32.6316C127.628 32.8158 127.601 32.9737 127.549 33.1053C127.496 33.2368 127.417 33.3684 127.338 33.4737C127.233 33.579 127.128 33.6842 126.996 33.7632C126.865 33.8421 126.707 33.9211 126.549 33.9737C126.654 34.0263 126.733 34.0526 126.812 34.1316C126.891 34.1842 126.97 34.2632 127.023 34.3421C127.075 34.4211 127.154 34.5263 127.207 34.6316C127.259 34.7368 127.312 34.8684 127.391 35L127.891 36.1842C127.943 36.2895 127.97 36.3421 127.97 36.3947C127.97 36.4474 127.97 36.4737 127.97 36.5ZM126.839 32.7368C126.839 32.5263 126.786 32.3421 126.681 32.2105C126.576 32.079 126.418 31.9737 126.181 31.8947C126.102 31.8684 126.023 31.8684 125.944 31.8421C125.865 31.8421 125.734 31.8421 125.576 31.8421H124.945V33.6316H125.681C125.892 33.6316 126.049 33.6053 126.181 33.5526C126.312 33.5 126.444 33.4474 126.549 33.3684C126.654 33.2895 126.707 33.1842 126.76 33.079C126.812 33 126.839 32.8684 126.839 32.7368ZM134.704 33.8684C134.704 34.2895 134.651 34.6842 134.546 35.0263C134.441 35.3684 134.283 35.6579 134.072 35.9211C133.862 36.1579 133.599 36.3421 133.257 36.4737C132.941 36.6053 132.547 36.6579 132.126 36.6579C131.705 36.6579 131.337 36.6053 131.021 36.4737C130.705 36.3421 130.469 36.1842 130.258 35.9474C130.048 35.7105 129.916 35.4474 129.811 35.1053C129.706 34.7632 129.653 34.3684 129.653 33.9474C129.653 33.5263 129.706 33.1316 129.811 32.7895C129.916 32.4474 130.074 32.1579 130.284 31.9211C130.495 31.6842 130.758 31.5 131.1 31.3684C131.416 31.2368 131.784 31.1842 132.231 31.1842C132.652 31.1842 132.994 31.2368 133.31 31.3684C133.625 31.4737 133.862 31.6579 134.072 31.8947C134.283 32.1316 134.441 32.3947 134.52 32.7368C134.651 33.0526 134.704 33.4474 134.704 33.8684ZM133.888 33.9211C133.888 33.6316 133.862 33.3421 133.809 33.079C133.757 32.8158 133.651 32.6053 133.52 32.3947C133.388 32.2105 133.204 32.0526 132.994 31.9474C132.783 31.8421 132.494 31.7895 132.178 31.7895C131.863 31.7895 131.573 31.8421 131.363 31.9737C131.153 32.079 130.968 32.2368 130.837 32.4474C130.705 32.6316 130.6 32.8684 130.548 33.1316C130.495 33.3947 130.469 33.6579 130.469 33.9474C130.469 34.2632 130.495 34.5526 130.548 34.8158C130.6 35.0789 130.705 35.3158 130.837 35.5C130.968 35.6842 131.153 35.8421 131.363 35.9474C131.573 36.0526 131.863 36.1053 132.178 36.1053C132.494 36.1053 132.783 36.0526 132.994 35.9211C133.204 35.8158 133.388 35.6579 133.546 35.4474C133.678 35.2632 133.783 35.0263 133.836 34.7632C133.862 34.4737 133.888 34.2105 133.888 33.9211ZM139.912 35.1053C139.912 35.3421 139.859 35.579 139.754 35.7632C139.649 35.9474 139.517 36.1316 139.36 36.2632C139.175 36.3947 138.991 36.5 138.755 36.579C138.518 36.6579 138.281 36.6842 137.992 36.6842C137.808 36.6842 137.623 36.6579 137.466 36.6316C137.308 36.6053 137.15 36.5526 137.045 36.5263C136.913 36.4737 136.808 36.4474 136.729 36.3947C136.65 36.3421 136.571 36.3158 136.545 36.2632C136.519 36.2368 136.492 36.1842 136.466 36.1316C136.44 36.0789 136.44 36.0263 136.44 35.9211C136.44 35.8684 136.44 35.8158 136.44 35.7632C136.44 35.7368 136.466 35.6842 136.466 35.6579C136.466 35.6316 136.492 35.6053 136.519 35.6053C136.545 35.6053 136.545 35.579 136.571 35.579C136.624 35.579 136.677 35.6053 136.755 35.6579C136.834 35.7105 136.913 35.7632 137.045 35.8158C137.15 35.8684 137.308 35.9211 137.466 35.9737C137.623 36.0263 137.808 36.0526 138.044 36.0526C138.202 36.0526 138.36 36.0263 138.492 36C138.623 35.9474 138.755 35.8947 138.834 35.8158C138.939 35.7368 139.018 35.6579 139.07 35.5263C139.123 35.4211 139.149 35.2895 139.149 35.1579C139.149 35 139.123 34.8684 139.044 34.7632C138.965 34.6579 138.886 34.5526 138.755 34.4737C138.623 34.3947 138.492 34.3158 138.36 34.2632C138.202 34.1842 138.044 34.1316 137.887 34.0526C137.729 33.9737 137.571 33.8947 137.413 33.8158C137.255 33.7368 137.124 33.6316 137.018 33.5263C136.887 33.4211 136.808 33.2632 136.729 33.1316C136.65 32.9737 136.624 32.7895 136.624 32.5789C136.624 32.3421 136.677 32.1579 136.755 31.9737C136.834 31.7895 136.966 31.6579 137.124 31.5263C137.282 31.4211 137.466 31.3158 137.676 31.2632C137.887 31.2105 138.123 31.1579 138.36 31.1579C138.492 31.1579 138.597 31.1579 138.728 31.1842C138.86 31.2105 138.965 31.2368 139.097 31.2632C139.202 31.2895 139.307 31.3421 139.386 31.3684C139.465 31.4211 139.517 31.4474 139.57 31.4737C139.596 31.5 139.623 31.5263 139.623 31.5263C139.623 31.5526 139.649 31.5526 139.649 31.579C139.649 31.6053 139.649 31.6316 139.675 31.6579C139.675 31.6842 139.675 31.7368 139.675 31.7895C139.675 31.8421 139.675 31.8947 139.675 31.9211C139.675 31.9474 139.675 32 139.649 32.0263C139.649 32.0526 139.623 32.079 139.623 32.079C139.596 32.079 139.596 32.1053 139.57 32.1053C139.544 32.1053 139.491 32.0789 139.412 32.0526C139.333 32.0263 139.254 31.9737 139.149 31.9211C139.044 31.8684 138.939 31.8421 138.807 31.7895C138.676 31.7368 138.518 31.7368 138.36 31.7368C138.202 31.7368 138.071 31.7632 137.939 31.7895C137.834 31.8421 137.729 31.8947 137.65 31.9474C137.571 32.0263 137.518 32.0789 137.492 32.1842C137.466 32.2632 137.439 32.3684 137.439 32.4737C137.439 32.6316 137.466 32.7368 137.545 32.8684C137.623 32.9737 137.702 33.079 137.834 33.1579C137.965 33.2368 138.097 33.3158 138.255 33.3947C138.413 33.4737 138.57 33.5263 138.728 33.6053C138.886 33.6842 139.044 33.7632 139.202 33.8421C139.36 33.9211 139.491 34.0263 139.623 34.1316C139.754 34.2368 139.833 34.3684 139.912 34.5263C139.886 34.7105 139.912 34.8947 139.912 35.1053Z" fill="black"/>
<path d="M159.982 34.6842L173.398 37.5263L157.825 44.3684L145.278 41.5L159.982 34.6842Z" fill="#B4B4B3"/>
<path d="M155.616 41.5H145.278V31.2369H165.954L155.616 41.5Z" fill="url(#paint0_linear_207_531)"/>
<path d="M163.034 37.6053H173.398V47.8684H152.696L163.034 37.6053Z" fill="#0FA1D9"/>
<path d="M160.64 43.3947C160.798 43.3684 161.035 43.3421 161.377 43.3421C161.719 43.3421 161.955 43.3947 162.113 43.5263C162.271 43.6579 162.376 43.8421 162.376 44.0789C162.376 44.3158 162.297 44.5263 162.166 44.6579C161.982 44.8421 161.692 44.921 161.377 44.921C161.298 44.921 161.245 44.921 161.193 44.921V45.7895H160.666V43.3947H160.64ZM161.166 44.4737C161.219 44.4737 161.271 44.5 161.35 44.5C161.64 44.5 161.824 44.3421 161.824 44.1053C161.824 43.8947 161.666 43.7632 161.403 43.7632C161.298 43.7632 161.219 43.7632 161.193 43.7895V44.4737H161.166Z" fill="white"/>
<path d="M163.718 45.7632L163.692 45.579C163.586 45.7105 163.402 45.7895 163.192 45.7895C162.85 45.7895 162.639 45.5263 162.639 45.2632C162.639 44.8158 163.034 44.6053 163.665 44.6053V44.579C163.665 44.4737 163.613 44.3421 163.35 44.3421C163.165 44.3421 163.034 44.4474 162.929 44.579L162.745 44.3421C162.824 44.2369 163.113 43.9737 163.429 43.9737C164.007 43.9737 164.191 44.3158 164.191 44.7369V45.3421C164.191 45.5 164.191 45.6579 164.218 45.7632H163.718ZM163.665 44.9474C163.376 44.9474 163.165 45.0263 163.165 45.2105C163.165 45.3421 163.244 45.4211 163.376 45.4211C163.507 45.4211 163.613 45.3421 163.665 45.2105C163.665 45.1842 163.665 45.1579 163.665 45.1053V44.9474Z" fill="white"/>
<path d="M164.507 44.579C164.507 44.3158 164.507 44.1579 164.481 44H164.954L164.98 44.3158H165.007C165.086 44.0526 165.296 43.9474 165.48 43.9474C165.533 43.9474 165.559 43.9474 165.585 43.9474V44.4474C165.533 44.4474 165.507 44.4211 165.428 44.4211C165.217 44.4211 165.086 44.5263 165.059 44.6842C165.059 44.7105 165.059 44.7632 165.059 44.8158V45.6842H164.507V44.579Z" fill="white"/>
<path d="M166.532 43.5263V44.0263H166.927V44.421H166.532V45.0526C166.532 45.2631 166.585 45.3684 166.743 45.3684C166.822 45.3684 166.874 45.3684 166.901 45.3421V45.7631C166.822 45.7895 166.69 45.8158 166.559 45.8158C166.375 45.8158 166.243 45.7631 166.164 45.6579C166.059 45.5526 166.006 45.3947 166.006 45.1316V44.421H165.77V44.0263H166.006V43.5263H166.532Z" fill="white"/>
<path d="M167.216 44.579C167.216 44.3684 167.216 44.1842 167.19 44.0263H167.664L167.69 44.2632C167.769 44.1579 167.927 43.9737 168.216 43.9737C168.584 43.9737 168.847 44.2105 168.847 44.7105V45.7369H168.295V44.7632C168.295 44.5263 168.216 44.3947 168.032 44.3947C167.874 44.3947 167.795 44.5 167.769 44.6053C167.743 44.6316 167.743 44.6842 167.743 44.7369V45.7369H167.19V44.579H167.216Z" fill="white"/>
<path d="M169.715 45.0526C169.742 45.2895 169.952 45.3947 170.215 45.3947C170.399 45.3947 170.478 45.3158 170.636 45.2632L170.794 45.5263C170.636 45.6579 170.373 45.7895 170.136 45.7895C169.558 45.7895 169.216 45.4474 169.216 44.8947C169.216 44.4474 169.479 43.9737 170.084 43.9737C170.636 43.9737 170.873 44.4211 170.873 44.8421C170.873 44.9474 170.873 45.0263 170.846 45.0526H169.715ZM170.347 44.6842C170.347 44.5526 170.294 44.3421 170.031 44.3421C169.794 44.3421 169.715 44.5526 169.689 44.6842H170.347Z" fill="white"/>
<path d="M171.188 44.579C171.188 44.3158 171.188 44.1579 171.162 44H171.636L171.662 44.3158H171.688C171.767 44.0526 171.978 43.9474 172.162 43.9474C172.214 43.9474 172.241 43.9474 172.267 43.9474V44.4474C172.214 44.4474 172.188 44.4211 172.109 44.4211C171.899 44.4211 171.767 44.5263 171.741 44.6842C171.741 44.7105 171.741 44.7632 171.741 44.8158V45.6842H171.188V44.579Z" fill="white"/>
<path d="M146.146 37.7369C146.567 37.9474 147.014 38.2106 147.751 38.2106C148.356 38.2106 148.645 38.0263 148.645 37.7105C148.645 37.4474 148.356 37.2632 147.593 37.0527C146.515 36.7632 145.62 36.1842 145.62 35.1053C145.62 33.9474 146.646 33.1053 148.303 33.1053C149.171 33.1053 149.908 33.4737 150.408 33.6579L149.697 34.8684C149.408 34.7369 149.013 34.5263 148.277 34.5263C147.751 34.5263 147.462 34.6842 147.462 34.9737C147.462 35.3158 147.856 35.4211 148.698 35.6842C149.934 36.079 150.513 36.6842 150.513 37.6316C150.513 38.6842 149.671 39.6842 147.646 39.6842C146.804 39.6842 145.936 39.2895 145.541 39.079L146.146 37.7369Z" fill="white"/>
<path d="M155.484 33.2895C155.484 33.2895 156.694 33.2895 157.799 33.2895C158.746 33.2895 159.22 33.4737 159.667 33.7895C160.114 34.1053 160.43 34.6579 160.43 35.3421C160.43 35.9474 160.219 36.5263 159.798 36.8948C159.246 37.3684 158.694 37.579 157.72 37.579C157.51 37.579 157.352 37.5526 157.247 37.5526V39.5263H155.484V33.2895ZM157.247 36.2369C157.352 36.2632 157.484 36.2632 157.72 36.2632C158.404 36.2632 158.904 35.9474 158.904 35.3684C158.904 34.8948 158.562 34.6053 157.852 34.6053C157.562 34.6053 157.352 34.6316 157.273 34.6316V36.2369H157.247Z" fill="white"/>
<path d="M153.775 33.2105H151.933L150.986 35.921L150.907 36.1579L149.724 39.5526H151.486L151.749 38.6052C152.065 38.7368 152.433 38.7895 152.828 38.7895C153.248 38.7895 153.617 38.7105 153.932 38.5789L154.222 39.5526H155.984L153.775 33.2105ZM152.328 36.6316L152.459 36.1579C152.538 35.8684 152.617 35.5 152.696 35.1579C152.722 35.0789 152.722 35.0263 152.749 34.9474H152.775C152.801 35 152.828 35.0789 152.828 35.1579C152.933 35.4737 153.038 35.8421 153.117 36.1316L153.248 36.6052L153.433 37.2631C153.222 37.3158 153.012 37.3421 152.775 37.3421C152.538 37.3421 152.328 37.3158 152.117 37.2631L152.328 36.6316Z" fill="white"/>
<path d="M150.986 47.7895V47.2106H150.776V47.079H151.328V47.2106H151.118V47.7895H150.986Z" fill="#231F20"/>
<path d="M151.407 47.7895V47.079H151.618L151.749 47.5527L151.881 47.079H152.091V47.7895H151.96V47.2369L151.828 47.7895H151.697L151.565 47.2369V47.7895H151.407Z" fill="#231F20"/>
<defs>
<linearGradient id="paint0_linear_207_531" x1="155.613" y1="41.5109" x2="155.613" y2="31.2396" gradientUnits="userSpaceOnUse">
<stop stop-color="#2063AE"/>
<stop offset="1" stop-color="#24A3DC"/>
</linearGradient>
</defs>
</svg>
